Coordinates
version=1
nRows=9
nColumns=36
inDegrees=yes

Units are S.I. units (second, meters, Newtons, ...)
If the header above contains a line with 'inDegrees', this indicates whether rotational values are in degrees (yes) or radians (no).

endheader
time	pelvis_tilt	pelvis_list	pelvis_rotation	pelvis_tx	pelvis_ty	pelvis_tz	hip_flexion_r	hip_adduction_r	hip_rotation_r	knee_angle_r	knee_angle_r_beta	ankle_angle_r	subtalar_angle_r	mtp_angle_r	hip_flexion_l	hip_adduction_l	hip_rotation_l	knee_angle_l	knee_angle_l_beta	ankle_angle_l	subtalar_angle_l	mtp_angle_l	lumbar_extension	lumbar_bending	lumbar_rotation	arm_flex_r	arm_add_r	arm_rot_r	elbow_flex_r	pro_sup_r	arm_flex_l	arm_add_l	arm_rot_l	elbow_flex_l	pro_sup_l
      5.40000000	    -20.92384734	     -3.21733071	     -5.45463448	      0.65947749	      0.73032352	      0.12841823	     62.65695563	     10.91161634	     -8.81663835	     74.00421246	      1.29161717	     40.07851527	     -2.48319756	     -7.49999987	     91.39213379	     -3.81175626	     13.49421473	     46.50078100	      0.81159173	      3.47235796	     -0.21350439	     -7.49999987	    -21.70759669	     10.29437396	      5.38989130	     61.31507543	     -1.34466627	     84.99684159	    117.24827129	    103.99281651	     57.71965528	     -3.98063112	     71.70009067	    120.39738767	    110.17349799
      5.41666670	    -20.55280612	     -3.20103267	     -5.30295509	      0.65892232	      0.73434817	      0.12825159	     62.00931937	     10.99698450	     -8.33166882	     73.37210929	      1.28058489	     39.25841244	     -3.55023005	     -7.49999987	     90.07600121	     -3.64582543	     13.28672082	     46.23502867	      0.80695348	      2.90727836	     -1.06058987	     -7.49999987	    -21.48928813	     10.12612253	      5.18598765	     61.47777530	     -0.93377034	     85.12096970	    116.96376376	    105.31948088	     58.72426261	     -3.87561639	     71.13574006	    120.61737675	    112.10422386
      5.43333330	    -20.27763988	     -3.12625874	     -5.03961396	      0.65895286	      0.74033660	      0.12850997	     61.46989477	     10.94099322	     -7.82062255	     72.64235512	      1.26784827	     38.30259172	     -4.58784139	     -7.49999987	     88.74832836	     -3.35261817	     13.12488244	     46.22822133	      0.80683467	      2.42853034	     -1.74997536	     -7.49999987	    -21.32749340	      9.80204655	      5.17506751	     61.38063798	     -1.01138979	     84.97580638	    117.03876720	    105.20248849	     59.75862630	     -3.81795487	     72.24892765	    120.43971110	    111.66691618
      5.45000000	    -19.84052856	     -3.14440762	     -4.55104588	      0.66553597	      0.74498153	      0.13136163	     60.46617133	     10.97785184	     -7.31208532	     71.73495022	      1.25201107	     37.66990865	     -5.59275969	     -7.49999987	     87.24842272	     -2.98665811	     13.01140903	     46.45535378	      0.81079888	      2.17319207	     -2.62107756	     -7.49999987	    -20.87994261	      9.34398772	      4.64112448	     60.70428892	     -0.88172954	     84.70445743	    116.89813303	    105.15296044	     59.64309155	     -4.16418754	     72.56632458	    120.21500077	    111.33052860
      5.46666670	    -19.43620123	     -3.04242742	     -4.04502542	      0.66563779	      0.75130267	      0.13071096	     59.61909285	     10.82807117	     -6.74900115	     70.80235900	      1.23573428	     36.57406689	     -6.79642421	     -7.49999987	     85.73577861	     -2.60952566	     12.78272266	     46.43682265	      0.81047545	      1.76798257	     -3.42157819	     -7.49999987	    -20.42279946	      8.75872045	      4.03292074	     60.38614789	     -0.65144312	     84.04955060	    117.70345906	    105.11501004	     59.95218493	     -3.98207989	     73.18194478	    120.82429883	    110.92791665
      5.48333330	    -18.78891205	     -2.94628234	     -3.23152180	      0.66501082	      0.76117378	      0.13058564	     58.38320115	     10.50436261	     -6.22796366	     69.50945211	      1.21316880	     35.04531403	     -8.51304066	     -7.49999987	     83.84055656	     -2.11912212	     12.16473774	     46.71680882	      0.81536213	      0.64385400	     -4.49881280	     -7.49999987	    -20.21763732	      8.13588745	      3.46336209	     59.91086732	     -0.47579223	     83.33699574	    118.02320033	    105.08981804	     60.71861166	     -3.64666743	     72.92849304	    120.72937261	    110.58350351
      5.50000000	    -17.92510868	     -2.94496008	     -2.92375550	      0.66510754	      0.76798798	      0.13008622	     57.04473457	     10.43769912	     -5.67308174	     68.13234659	      1.18913378	     33.48252932	     -9.53622253	     -7.49999987	     81.97333707	     -2.01390407	     11.72348660	     46.66791292	      0.81450874	     -0.44330036	     -5.39674408	     -7.49999987	    -20.35152143	      7.43504650	      3.50080654	     59.54201141	     -0.90964623	     82.40437295	    118.59083809	    105.64032421	     61.89769353	     -2.98239979	     73.07460724	    119.86533081	    110.62602544
      5.51666670	    -17.39119031	     -2.99748626	     -2.67479364	      0.66548887	      0.77467462	      0.13001630	     55.82409600	     10.47383421	     -5.21693507	     66.68150079	      1.16381174	     32.19902416	    -10.28625701	     -7.49999987	     80.65604155	     -2.04151836	     11.28886306	     46.71932147	      0.81540598	     -0.88699715	     -6.08557570	     -7.49999987	    -20.04766522	      7.00267052	      3.04294241	     59.62253191	     -0.74120571	     81.24578385	    118.86052984	    106.96723586	     62.96034064	     -2.94585120	     73.30775153	    120.48188795	    110.70816044
      5.53333330	    -16.66049320	     -3.02351563	     -2.22174179	      0.66610526	      0.78455847	      0.12922268	     54.15927492	     10.49086448	     -4.56209473	     64.91961772	      1.13306108	     30.67992585	    -11.48268243	     -7.49999987	     79.05582569	     -1.82321110	     10.84680059	     47.01010574	      0.82048113	     -0.98578713	     -6.96929353	     -7.49999987	    -19.89689969	      6.48603246	      2.37860554	     59.73549030	     -0.60066277	     81.13002007	    119.68610287	    106.84809188	     63.98345501	     -2.70922292	     73.44950887	    120.52391090	    110.37371914
